<svg viewBox="0 0 296 995" fill="none" xmlns="http://www.w3.org/2000/svg">
<path fill-rule="evenodd" clip-rule="evenodd" d="M167.257 1058V1028.3C167.257 997.7 167.257 938.3 195.079 878C222.901 817.7 278.544 758.3 292.455 698C306.366 637.7 278.544 578.3 222.901 518C167.257 457.7 83.7917 398.3 14.2373 338C-55.3171 277.7 -110.961 218.3 -110.961 158C-110.961 97.7 -55.3171 38.3 -27.4953 7.70007L0.326447 -22H-417V7.70007C-417 38.3 -417 97.7 -417 158C-417 218.3 -417 277.7 -417 338C-417 398.3 -417 457.7 -417 518C-417 578.3 -417 637.7 -417 698C-417 758.3 -417 817.7 -417 878C-417 938.3 -417 997.7 -417 1028.3V1058H167.257Z" fill="url(#paint0_linear_238_38)"/>
<defs>
<linearGradient id="paint0_linear_238_38" x1="-417" y1="518" x2="296" y2="518" gradientUnits="userSpaceOnUse">
<stop offset="0.3" stop-color="#131314"/>
<stop offset="1" stop-color="#151515"/>
</linearGradient>
</defs>
</svg>
